# xmcd
#
# Track frame offsets:
#	150
#	40827
#	109608
#	114560
#	137234
#	165689
#
# Disc length: 2477 seconds
#
# Revision: 0
# Processed by: cddbd v1.5.2PL0 Copyright (c) Steve Scherf et al.
# Submitted via: audiograbber 1.83.01
#
DISCID=4b09ab06
DTITLE=Grateful Dead - 73-06-30 Universal Amphitheatre, Universal City CA
DYEAR=1900
DGENRE=
TTITLE0=Black Peter
TTITLE1=Playing In The Band
TTITLE2=Tuning
TTITLE3=Greatest Story Ever Told
TTITLE4=Ramble On Rose
TTITLE5=El Paso
EXTD=
EXTT0=
EXTT1=
EXTT2=
EXTT3=
EXTT4=
EXTT5=
PLAYORDER=
